<svg width="27" height="26" viewBox="0 0 27 26" fill="none" xmlns="http://www.w3.org/2000/svg">
<path fill-rule="evenodd" clip-rule="evenodd" d="M8.585 24.1607H25.195C25.705 24.1607 26.115 24.5706 26.115 25.0804C26.115 25.5902 25.705 26 25.195 26H8.585C6.465 26 4.735 24.2707 4.735 22.1515V19.5925H2.825C2.315 19.5925 1.895 19.1726 1.895 18.6628V15.2841C0.765 14.2345 0.125 12.7751 0.125 11.2157V3.8985C0.125 1.74933 1.875 0 4.025 0H7.315C9.465 0 11.215 1.74933 11.215 3.8985V11.2157C11.215 12.7851 10.575 14.2345 9.445 15.2841V18.6628C9.445 19.1726 9.025 19.5925 8.515 19.5925H6.575V22.1515C6.575 23.2611 7.475 24.1607 8.585 24.1607ZM1.975 11.2257C1.975 12.3652 2.495 13.4248 3.395 14.1246V14.1146C3.625 14.2845 3.755 14.5544 3.755 14.8443V17.7232H7.555V14.8443C7.555 14.5644 7.685 14.2945 7.915 14.1146C8.825 13.4148 9.335 12.3552 9.335 11.2157V3.8985C9.335 2.77893 8.425 1.85928 7.295 1.85928H4.015C2.895 1.85928 1.975 2.76894 1.975 3.8985V11.2257ZM20.575 0.439812C19.895 0.0799507 19.135 -0.0599955 18.355 0.0399661C17.355 0.15992 16.455 0.669724 15.835 1.46942C14.665 2.96884 14.795 5.11801 16.145 6.46749L19.915 10.236C20.085 10.406 20.325 10.5059 20.575 10.5059C20.825 10.5059 21.055 10.406 21.235 10.236L24.985 6.48749C25.705 5.77776 26.125 4.79814 26.125 3.78852C26.125 2.77891 25.735 1.82928 25.015 1.11955C23.865 -0.030007 22.015 -0.299903 20.575 0.449808V0.439812ZM23.665 5.17799L20.575 8.2668L17.465 5.158C16.775 4.47826 16.715 3.37868 17.305 2.61897C17.625 2.20913 18.075 1.95923 18.585 1.88925C18.665 1.87926 18.745 1.87926 18.825 1.87926C19.255 1.87926 19.665 2.0192 20.005 2.2891C20.345 2.549 20.815 2.549 21.145 2.2891C21.885 1.70932 23.025 1.7693 23.695 2.43904C24.055 2.7989 24.255 3.28872 24.255 3.79852C24.255 4.30832 24.045 4.80813 23.665 5.17799ZM4.73497 9.30648V9.7763C4.73497 10.2861 5.15497 10.7059 5.66497 10.7059C6.17497 10.7059 6.59497 10.2861 6.59497 9.7763V9.30648H7.05497C7.56497 9.30648 7.98497 8.88664 7.98497 8.37684C7.98497 7.86703 7.56497 7.44719 7.05497 7.44719H6.59497V6.98737C6.59497 6.47757 6.17497 6.05773 5.66497 6.05773C5.15497 6.05773 4.73497 6.47757 4.73497 6.98737V7.44719H4.27497C3.76497 7.44719 3.34497 7.86703 3.34497 8.37684C3.34497 8.88664 3.76497 9.30648 4.27497 9.30648H4.73497Z" fill="#CE9A24"/>
</svg>
