<svg width="26" height="26" viewBox="0 0 26 26" fill="none" xmlns="http://www.w3.org/2000/svg">
<path fill-rule="evenodd" clip-rule="evenodd" d="M11.0904 24.1995C11.6004 24.7195 12.2804 24.9995 13.0004 24.9995V24.9895C13.7204 24.9895 14.4004 24.7095 14.9104 24.1895L23.5104 15.4895C26.5404 12.4695 26.8404 7.62949 24.2104 4.23949C22.8204 2.44949 20.8204 1.31949 18.5904 1.05949C16.6004 0.82949 14.6504 1.29949 13.0004 2.39949C9.68039 0.18949 5.24039 0.61949 2.41039 3.52949C-0.829613 6.84949 -0.799613 12.2195 2.48039 15.4895L11.0904 24.1995ZM3.75039 4.81949C5.02039 3.50949 6.70039 2.84949 8.39039 2.84949C9.81039 2.84949 11.2304 3.30949 12.4204 4.25949C12.7604 4.52949 13.2404 4.52949 13.5804 4.25949C14.9504 3.16949 16.6504 2.68949 18.3704 2.88949C20.1104 3.09949 21.6604 3.97949 22.7404 5.36949C24.8104 8.02949 24.5704 11.8195 22.1904 14.1995L13.5904 22.9095C13.2804 23.2295 12.7304 23.2295 12.4204 22.9095L3.81039 14.1995C1.24039 11.6295 1.21039 7.41949 3.75039 4.81949ZM17.32 11.3629H19.36H19.37C19.85 11.3629 20.24 11.7529 20.24 12.2329C20.24 12.7129 19.85 13.1029 19.37 13.1029H17.05C16.86 13.1029 16.69 13.0429 16.54 12.9429L13.9 11.0729V15.0829C13.9 15.4129 13.72 15.7129 13.43 15.8629C13.31 15.9329 13.17 15.9629 13.03 15.9629C12.86 15.9629 12.68 15.9029 12.53 15.8029L8.70003 13.1129H6.65003C6.17003 13.1129 5.78003 12.7229 5.78003 12.2429C5.78003 11.7629 6.17003 11.3729 6.65003 11.3729H8.97003C9.15003 11.3729 9.32003 11.4329 9.47003 11.5329L12.15 13.4129V9.39288C12.15 9.06288 12.33 8.76288 12.62 8.61288C12.91 8.46288 13.26 8.48288 13.53 8.67288L17.32 11.3629Z" fill="#CE9A24"/>
</svg>
