<svg width="55" height="55" viewBox="0 0 55 55" fill="none" xmlns="http://www.w3.org/2000/svg">
<path fill-rule="evenodd" clip-rule="evenodd" d="M9.81538 2.11536H45.1846C50.6 2.11536 55 6.1151 55 11.0037V33.5842C55 38.4941 50.6 42.4725 45.1846 42.4725H29.4673V48.9906H33.5077C34.5865 48.9906 35.475 49.8583 35.475 50.9376C35.475 52.0169 34.5865 52.8846 33.5077 52.8846H21.4923C20.4135 52.8846 19.525 52.0169 19.525 50.9376C19.525 49.8583 20.4135 48.9906 21.4923 48.9906H25.5327V42.4725H9.81538C4.4 42.4725 0 38.4729 0 33.5842V11.0037C0 6.09393 4.4 2.11536 9.81538 2.11536ZM45.1846 38.5575C48.4212 38.5575 51.0654 36.3353 51.0654 33.5842V11.0037C51.0654 8.27369 48.4212 6.03045 45.1846 6.03045H9.81538C6.57885 6.03045 3.93462 8.25253 3.93462 11.0037V33.5842C3.93462 36.3141 6.57885 38.5575 9.81538 38.5575H45.1846ZM19.0385 24.3269C20.2067 24.3269 21.1538 23.3798 21.1538 22.2115C21.1538 21.0432 20.2067 20.0961 19.0385 20.0961C17.8702 20.0961 16.9231 21.0432 16.9231 22.2115C16.9231 23.3798 17.8702 24.3269 19.0385 24.3269ZM38.0769 22.2115C38.0769 23.3798 37.1299 24.3269 35.9615 24.3269C34.7932 24.3269 33.8462 23.3798 33.8462 22.2115C33.8462 21.0432 34.7932 20.0961 35.9615 20.0961C37.1299 20.0961 38.0769 21.0432 38.0769 22.2115ZM27.5 24.3269C28.6683 24.3269 29.6154 23.3798 29.6154 22.2115C29.6154 21.0432 28.6683 20.0961 27.5 20.0961C26.3317 20.0961 25.3846 21.0432 25.3846 22.2115C25.3846 23.3798 26.3317 24.3269 27.5 24.3269Z" fill="#CE9A24"/>
</svg>
