<svg width="60" height="60" viewBox="0 0 60 60" fill="none" xmlns="http://www.w3.org/2000/svg">
<g clip-path="url(#clip0_26_105)">
<circle cx="30.5" cy="29.5" r="27.5" fill="#0079C2"/>
<path fill-rule="evenodd" clip-rule="evenodd" d="M30 0C38.0077 0 45.5538 3.11538 51.2077 8.79231C56.8846 14.4462 60 21.9923 60 30C60 38.0077 56.8846 45.5538 51.2077 51.2077C45.5538 56.8846 38.0077 60 30 60C21.9923 60 14.4692 56.8846 8.79231 51.2077C3.11538 45.5538 0 38.0077 0 30C0 21.9923 3.11538 14.4462 8.79231 8.79231C14.4462 3.11538 21.9923 0 30 0ZM30 55.7077C36.8769 55.7077 43.3385 53.0308 48.1846 48.1846C53.0308 43.3154 55.7077 36.8769 55.7077 30C55.7077 23.1231 53.0308 16.6615 48.1846 11.8154C43.3154 6.96923 36.8769 4.29231 30 4.29231C23.1231 4.29231 16.6615 6.96923 11.8154 11.8154C6.96923 16.6846 4.29231 23.1231 4.29231 30C4.29231 36.8769 6.96923 43.3385 11.8154 48.1846C16.6846 53.0308 23.1231 55.7077 30 55.7077ZM29.5927 27.2444L32.16 28.2586C38.0428 30.2915 38.7321 38.5168 32.1263 40.2282V41.7498C32.1263 43.17 31.1804 43.8462 29.9979 43.8462C28.8157 43.8462 27.8698 43.17 27.8698 41.7498V40.1945C25.7416 39.6196 24.0526 38.1658 23.2419 36.1708C23.0392 35.6975 23.0054 35.1226 23.2419 34.6154C23.4782 34.1082 23.9174 33.7025 24.4918 33.5333C25.6535 33.1795 26.7706 33.1768 27.3969 34.5138C27.7685 35.2578 28.5792 36.0355 30.0318 36.0355C31.4843 36.0355 32.4302 35.3592 32.4302 34.2773C32.4302 33.2968 31.4843 32.7219 30.6736 32.4175L28.1063 31.4709C25.2012 30.4565 23.6472 28.4278 23.6472 25.689C23.6472 22.9501 25.3362 20.7861 27.8361 19.9408V18.3178C27.8361 16.8977 28.782 16.1538 29.9642 16.1538C31.1465 16.1538 32.0924 16.8977 32.0924 18.3178V19.8732C34.0516 20.448 35.5719 21.8681 36.2474 23.8632C36.6192 24.945 36.0785 26.0271 34.9975 26.3991L34.2882 26.6695H33.849C33.4775 26.6695 32.5315 26.5343 32.0587 25.3507C31.6872 24.3025 30.7412 24.0997 30.0318 24.0997C29.1535 24.0997 28.14 24.5054 28.14 25.689C28.14 26.0947 28.14 26.6695 29.5927 27.2444Z" fill="#CE9A24"/>
</g>
<defs>
<clipPath id="clip0_26_105">
<rect width="60" height="60" fill="white"/>
</clipPath>
</defs>
</svg>
