<svg width="35" height="35" viewBox="0 0 35 35" fill="none" xmlns="http://www.w3.org/2000/svg">
<g clip-path="url(#clip0_26_75)">
<path d="M35.0001 18.4961C35.0001 15.373 32.4694 12.8423 29.3463 12.8423H24.9444V8.34611C24.9444 5.22303 22.4136 2.69226 19.2905 2.69226H10.5539C8.75008 2.69226 7.12123 3.41918 5.68085 4.85957C1.75008 8.79034 -0.0133851 17.675 7.64647e-05 24.2576C7.64647e-05 24.9442 0.565461 25.5096 1.252 25.5096H2.7597C3.19047 28.5923 5.78854 30.9615 8.952 30.9615C12.1155 30.9615 14.5251 28.7673 15.104 25.873H22.5751C23.154 28.7673 25.6847 30.9615 28.7271 30.9615C32.1867 30.9615 35.0001 28.1211 35.0001 24.6211V18.4961ZM8.952 28.4576C6.86547 28.4576 5.16931 26.7346 5.16931 24.6211C5.16931 22.5076 6.86547 20.7846 8.952 20.7846C11.0385 20.7846 12.7347 22.5076 12.7347 24.6211C12.7347 26.7346 11.0385 28.4576 8.952 28.4576ZM22.5751 23.3692H15.104C14.5251 20.475 11.9943 18.2807 8.952 18.2807C5.9097 18.2807 3.62123 20.2865 2.90777 22.9923H2.51739C2.70585 16.9346 4.38854 9.6788 7.44431 6.62303C8.41354 5.6538 9.42316 5.18265 10.5539 5.18265H19.304C21.0405 5.18265 22.454 6.59611 22.454 8.33265V14.0807C22.454 14.7673 23.0194 15.3326 23.7059 15.3326H29.3598C31.0963 15.3326 32.5098 16.7461 32.5098 18.4826V19.573C31.4598 18.7653 30.154 18.2673 28.7271 18.2673C25.6847 18.2673 23.154 20.4615 22.5751 23.3557V23.3692ZM28.7271 28.4576C26.6405 28.4576 24.9444 26.7346 24.9444 24.6211C24.9444 22.5076 26.6405 20.7846 28.7271 20.7846C30.8136 20.7846 32.5098 22.5076 32.5098 24.6211C32.5098 26.7346 30.8136 28.4576 28.7271 28.4576Z" fill="#CE9A24"/>
</g>
<defs>
<clipPath id="clip0_26_75">
<rect width="35" height="35" fill="white"/>
</clipPath>
</defs>
</svg>
