<svg width="35" height="35" viewBox="0 0 35 35" fill="none" xmlns="http://www.w3.org/2000/svg">
<g clip-path="url(#clip0_26_72)">
<path d="M28.94 34.9865H21.816C21.1292 34.9865 20.5637 34.4213 20.5637 33.7349V23.6546H14.4498V33.7349C14.4498 34.4213 13.8842 34.9865 13.1974 34.9865H6.0735C2.72028 34.9865 0 32.2276 0 28.8361V17.0466C0 14.18 1.27934 11.5288 3.50135 9.76573L14.5576 0.977467C16.187 -0.314527 18.4629 -0.327986 20.0923 0.95055L31.4717 9.8061C33.6802 11.5288 35 14.2338 35 17.0601V28.8496C35 32.2411 32.2662 35 28.9266 35L28.94 34.9865ZM23.0685 32.4834H28.94C30.9195 32.4834 32.5221 30.8413 32.5221 28.8361V17.0466C32.5221 14.9875 31.566 13.0092 29.95 11.7576L18.5706 2.91546C17.8434 2.35021 16.8468 2.36367 16.1197 2.91546L5.05002 11.7306C3.42055 13.0226 2.49134 14.9606 2.49134 17.0601V28.8496C2.49134 30.8548 4.09388 32.4967 6.0735 32.4967H11.945V22.4166C11.945 21.7302 12.5106 21.1649 13.1974 21.1649H21.8026C22.4894 21.1649 23.055 21.7302 23.055 22.4166V32.4967L23.0685 32.4834Z" fill="#CE9A24"/>
</g>
<defs>
<clipPath id="clip0_26_72">
<rect width="35" height="35" fill="white"/>
</clipPath>
</defs>
</svg>
