<svg width="40" height="39" viewBox="0 0 40 39" fill="none" xmlns="http://www.w3.org/2000/svg">
<g clip-path="url(#clip0_61_314)">
<path fill-rule="evenodd" clip-rule="evenodd" d="M3.14819 17.013C3.14819 27.7242 14.3186 38.5242 19.4445 38.5242L19.4593 38.5093C24.5852 38.5093 35.7556 27.7093 35.7556 16.9982V7.56111C35.7556 4.65741 33.7112 2.13889 30.8815 1.57593C20.4519 -0.527772 18.3186 -0.527772 8.00745 1.59074C5.19264 2.16852 3.14819 4.68704 3.14819 7.57593V17.013ZM8.54079 4.30185C13.5186 3.26482 16.4519 2.76111 19.4149 2.76111H19.4297C22.3778 2.76111 25.3408 3.26482 30.3482 4.27222C31.9037 4.58333 33.0297 5.97593 33.0297 7.56111V17.0279C33.0297 26.2427 22.9408 35.7834 19.4445 35.7834C15.9482 35.7834 5.8593 26.2427 5.8593 17.0279V7.59074C5.8593 6.00556 6.98523 4.61296 8.54079 4.30185ZM19.183 16.0087L20.8312 16.6599C24.6077 17.9649 25.0503 23.2453 20.8095 24.344V25.3209C20.8095 26.2326 20.2023 26.6667 19.4432 26.6667C18.6842 26.6667 18.0769 26.2326 18.0769 25.3209V24.3224C16.7107 23.9533 15.6264 23.02 15.106 21.7393C14.9757 21.4354 14.9541 21.0664 15.106 20.7407C15.2577 20.4151 15.5396 20.1547 15.9083 20.0461C16.6541 19.819 17.3713 19.8172 17.7734 20.6756C18.0119 21.1532 18.5323 21.6524 19.4649 21.6524C20.3974 21.6524 21.0046 21.2182 21.0046 20.5237C21.0046 19.8942 20.3974 19.5252 19.8769 19.3298L18.2288 18.7221C16.3637 18.0708 15.3661 16.7684 15.3661 15.0102C15.3661 13.2519 16.4504 11.8627 18.0553 11.32V10.2781C18.0553 9.36643 18.6626 8.88889 19.4215 8.88889C20.1805 8.88889 20.7877 9.36643 20.7877 10.2781V11.2766C22.0455 11.6456 23.0215 12.5573 23.4552 13.838C23.6938 14.5326 23.3467 15.2273 22.6528 15.4661L22.1974 15.6397H21.9155C21.6769 15.6397 21.0697 15.5529 20.7661 14.7931C20.5276 14.1202 19.9203 13.99 19.4649 13.99C18.9011 13.99 18.2504 14.2504 18.2504 15.0102C18.2504 15.2707 18.2504 15.6397 19.183 16.0087Z" fill="#CE9A24"/>
</g>
<defs>
<clipPath id="clip0_61_314">
<rect width="40" height="38.5185" fill="white"/>
</clipPath>
</defs>
</svg>
