<svg width="61" height="61" viewBox="0 0 61 61" fill="none" xmlns="http://www.w3.org/2000/svg">
<path fill-rule="evenodd" clip-rule="evenodd" d="M39.5429 29.9369C44.9416 31.8842 49.4952 35.4973 52.5464 40.3538H52.4995C56.1142 46.0785 57.1942 52.8119 55.5744 59.3342C55.2928 60.4838 54.0721 61.2112 52.8751 60.9296C51.6781 60.6481 50.9503 59.475 51.2321 58.3019C52.5701 52.9058 51.6781 47.3454 48.6971 42.6062C45.7395 37.8669 41.0451 34.5354 35.5056 33.245C32.3369 32.5177 29.1682 32.4942 26.1871 33.1042C18.3474 34.6762 11.7517 40.4946 9.75654 48.5419C8.95847 51.7327 8.95847 55.0877 9.75654 58.2785C10.0617 59.4515 9.31056 60.6246 8.11348 60.9061C7.94918 60.9765 7.76139 60.9765 7.59709 60.9765C6.58778 60.9765 5.67235 60.3196 5.41416 59.3108C4.45179 55.4631 4.45179 51.3808 5.41416 47.5331C7.5032 39.1338 13.7468 32.7758 21.4927 29.9369C17.1034 27.0042 14.1928 22.0069 14.1928 16.3292C14.1928 7.32 21.5162 0 30.5294 0C39.5429 0 46.8661 7.32 46.8661 16.3292C46.8661 22.0069 43.9557 27.0042 39.5429 29.9369ZM30.5294 4.34038C23.9104 4.34038 18.5352 9.71308 18.5352 16.3292C18.5352 22.9454 23.9104 28.3181 30.5294 28.3181C37.1486 28.3181 42.5239 22.9454 42.5239 16.3292C42.5239 9.71308 37.1486 4.34038 30.5294 4.34038ZM26.9271 55.2637C27.4198 55.7094 28.0533 55.9675 28.7102 55.9675H28.804C29.5079 55.9206 30.1648 55.6156 30.634 55.0994L38.6344 46.231C39.5964 45.1752 39.526 43.5094 38.4467 42.5475C37.391 41.5856 35.7252 41.656 34.7633 42.7352L28.5225 49.6329L26.669 47.9202C25.6133 46.9348 23.971 47.0052 22.9856 48.061C22.0002 49.1167 22.0706 50.759 23.1264 51.7444L26.9271 55.2637Z" fill="#CE9A24"/>
</svg>
