<svg width="38" height="38" viewBox="0 0 38 38" fill="none" xmlns="http://www.w3.org/2000/svg">
<g clip-path="url(#clip0_61_307)">
<path d="M19 0C8.52077 0 0 8.51422 0 18.9854V22.2275V29.2229C0 31.7641 2.07538 33.8378 4.61846 33.8378H6.40154C8.94462 33.8378 11.02 31.7641 11.02 29.2229V22.2275C11.02 19.6863 8.94462 17.6126 6.40154 17.6126H4.61846C3.96077 17.6126 3.33231 17.7587 2.76231 18.0069C3.27385 9.49269 10.3477 2.71637 19 2.71637C27.6523 2.71637 34.7262 9.50731 35.2377 18.0215C34.6677 17.7732 34.0392 17.6272 33.3815 17.6272H31.5985C29.0554 17.6272 26.98 19.701 26.98 22.2421V29.2375C26.98 30.4643 27.4623 31.5596 28.2369 32.3921C25.5331 34.2614 22.3031 35.2836 18.9854 35.2836C18.24 35.2836 17.6262 35.897 17.6262 36.6418C17.6262 37.3866 18.24 38 18.9854 38C23.3262 38 27.5354 36.4958 30.8969 33.794C31.1308 33.8232 31.35 33.8671 31.5985 33.8671H33.3815C35.9246 33.8671 38 31.7933 38 29.2521V22.286V19.0146C38 8.51422 29.4792 0 19 0ZM4.61846 20.329H6.40154C7.45385 20.329 8.30154 21.1761 8.30154 22.2275V29.2229C8.30154 30.2745 7.45385 31.1214 6.40154 31.1214H4.61846C3.56615 31.1214 2.71846 30.2745 2.71846 29.2229V22.2275C2.71846 21.1761 3.56615 20.329 4.61846 20.329ZM35.2815 29.2229C35.2815 30.2745 34.4338 31.1214 33.3815 31.1214H31.5985C30.5462 31.1214 29.6985 30.2745 29.6985 29.2229V22.2275C29.6985 21.1761 30.5462 20.329 31.5985 20.329H33.3815C34.4338 20.329 35.2815 21.1761 35.2815 22.2275V29.2229Z" fill="#CE9A24"/>
</g>
<defs>
<clipPath id="clip0_61_307">
<rect width="38" height="38" fill="white"/>
</clipPath>
</defs>
</svg>
