<svg width="45" height="45" viewBox="0 0 45 45" fill="none" xmlns="http://www.w3.org/2000/svg">
<path fill-rule="evenodd" clip-rule="evenodd" d="M39.0807 38.0769H5.91917C3.61725 38.0769 1.73071 36.1558 1.73071 33.7846V11.2154C1.73071 8.84422 3.59994 6.92307 5.91917 6.92307H39.0807C41.3826 6.92307 43.2692 8.84422 43.2692 11.2154V33.7846C43.2692 36.1558 41.3999 38.0769 39.0807 38.0769ZM5.91917 10.125C5.38264 10.125 4.93264 10.6269 4.93264 11.2327V33.7846C4.93264 34.3904 5.38264 34.8923 5.91917 34.8923H39.0807C39.6172 34.8923 40.0672 34.3904 40.0672 33.7846V11.2154C40.0672 10.6096 39.6172 10.1077 39.0807 10.1077H5.91917V10.125ZM16.9868 24.638C16.9868 23.149 15.8605 21.8319 14.1424 21.2973L12.6535 20.7628C11.9471 20.5146 11.9471 20.3047 11.9471 20.2093C11.9471 19.6366 12.8062 19.6366 12.8443 19.6366C13.1498 19.6366 13.6843 19.6939 13.8752 20.152C14.1042 20.6675 14.5433 20.9728 15.0587 20.9728H15.326L15.7459 20.8201C16.1086 20.7055 16.395 20.4765 16.5477 20.152C16.7004 19.8465 16.7195 19.4839 16.5859 19.1402C16.2041 18.1094 15.3642 17.365 14.2761 17.0213V16.1241C14.2761 15.3415 13.6461 14.7115 12.8634 14.7115C12.0808 14.7115 11.4508 15.3415 11.4508 16.1241V17.0213C10.0191 17.4795 9.00739 18.7011 9.00739 20.2284C9.00739 21.3165 9.48463 22.7672 11.7181 23.4926L13.188 23.989C13.4552 24.0843 14.047 24.3325 14.047 24.7143C14.047 25.0961 13.5507 25.3824 12.8443 25.3824C12.1381 25.3824 11.6417 25.0198 11.4699 24.6953C11.1263 24.0463 10.5918 23.9507 10.3055 23.9507H10.0764L9.61824 24.0843C9.21738 24.1989 8.91193 24.4471 8.75923 24.8099C8.6065 25.1534 8.6256 25.516 8.77832 25.8405C9.27463 26.9287 10.2482 27.6923 11.4699 28.0168V28.8758C11.4699 29.6584 12.0999 30.2885 12.8825 30.2885C13.6652 30.2885 14.2951 29.6584 14.2951 28.8758V28.0168C15.9177 27.5587 16.9868 26.3179 16.9868 24.657V24.638ZM27.0609 27.2601C27.3615 27.5338 27.748 27.6923 28.1487 27.6923H28.2059C28.6353 27.6636 29.0362 27.4763 29.3225 27.1594L34.2038 21.7142C34.7907 21.066 34.7477 20.0433 34.0892 19.4526C33.445 18.8621 32.4287 18.9054 31.8418 19.5679L28.0342 23.8029L26.9034 22.7515C26.2592 22.1464 25.2572 22.1897 24.656 22.8378C24.0549 23.486 24.0978 24.4944 24.742 25.0994L27.0609 27.2601Z" fill="#CE9A24"/>
</svg>
