<svg width="27" height="26" viewBox="0 0 27 26" fill="none" xmlns="http://www.w3.org/2000/svg">
<g clip-path="url(#clip0_26_11)">
<path d="M24.395 15.0416C23.205 13.7506 21.595 13 19.835 12.92C19.825 12.92 19.815 12.92 19.795 12.92L13.225 12.8899L13.205 3.90304C13.215 1.75139 11.465 4.26776e-05 9.315 4.26776e-05H4.025C1.875 -0.009965 0.125 1.74138 0.125 3.89303V22.097C0.125 24.2487 1.875 26 4.025 26C4.025 26 19.515 26 19.555 26C23.085 26 25.965 23.2779 26.115 19.7452C26.195 17.9939 25.585 16.3226 24.395 15.0316V15.0416ZM2.085 22.6975C2.025 22.5073 1.985 22.3072 1.985 22.097V12.5497L11.265 3.32259C11.325 3.51274 11.365 3.70289 11.365 3.90304L11.385 13.4604L2.085 22.6975ZM4.025 1.85146H9.305C9.535 1.86147 9.755 1.91151 9.965 1.98156L1.985 9.92766V3.89303C1.985 2.76216 2.905 1.85146 4.025 1.85146ZM4.025 24.1486C3.795 24.1486 3.585 24.0985 3.385 24.0385L10.865 16.6028L18.465 24.1586H4.025V24.1486ZM20.875 23.9384C20.875 23.9384 20.855 23.9084 20.845 23.8984L12.185 15.2818L12.715 14.7514L19.775 14.7814C21.025 14.8414 22.185 15.3818 23.025 16.3026C23.875 17.2233 24.315 18.4242 24.255 19.6751C24.165 21.7367 22.765 23.398 20.875 23.9484V23.9384Z" fill="#CE9A24"/>
</g>
<defs>
<clipPath id="clip0_26_11">
<rect width="27" height="26" fill="white"/>
</clipPath>
</defs>
</svg>
