<svg width="55" height="55" viewBox="0 0 55 55" fill="none" xmlns="http://www.w3.org/2000/svg">
<path fill-rule="evenodd" clip-rule="evenodd" d="M17.3462 0H37.6539C42.5615 0 46.5385 3.97692 46.5385 8.88461V46.1154C46.5385 51.0231 42.5404 55 37.6539 55H17.3462C12.4385 55 8.46155 51.0019 8.46155 46.1154V8.88461C8.46155 3.97692 12.4385 0 17.3462 0ZM37.6539 50.7692C40.2135 50.7692 42.3077 48.675 42.3077 46.1154V8.88461C42.3077 6.325 40.2135 4.23077 37.6539 4.23077H17.3462C14.7865 4.23077 12.6923 6.325 12.6923 8.88461V46.1154C12.6923 48.675 14.7865 50.7692 17.3462 50.7692H37.6539ZM25.2363 44.3173C25.2363 43.0692 26.2517 42.0538 27.4998 42.0538C28.7479 42.0538 29.7633 43.0692 29.7633 44.3173C29.7633 45.5654 28.7479 46.5808 27.4998 46.5808C26.2517 46.5808 25.2363 45.5654 25.2363 44.3173Z" fill="#CE9A24"/>
</svg>
