<svg width="27" height="26" viewBox="0 0 27 26" fill="none" xmlns="http://www.w3.org/2000/svg">
<path fill-rule="evenodd" clip-rule="evenodd" d="M13.525 0.00553507C20.385 0.21549 25.915 5.7543 26.125 12.6128V19.3514V22.1008C26.125 24.2503 24.375 26 22.225 26H4.025C1.875 26 0.125 24.2503 0.125 22.1008V19.5413V12.6128C0.235 9.13358 1.685 5.91427 4.215 3.53478C6.745 1.15529 10.055 -0.0944435 13.525 0.00553507ZM24.265 22.1108V19.1714L24.275 19.1814V12.6528C24.095 6.80408 19.355 2.0651 13.475 1.88513C10.495 1.78516 7.665 2.86492 5.495 4.90449C3.325 6.93405 2.085 9.69346 1.985 12.6628V19.1214V22.1108C1.985 23.2305 2.895 24.1503 4.025 24.1503H22.225C23.345 24.1503 24.265 23.2405 24.265 22.1108ZM17.745 9.2337H14.055V6.61426C14.055 6.10437 13.635 5.68446 13.125 5.68446C12.615 5.68446 12.195 6.10437 12.195 6.61426V9.2337H8.50495C7.99495 9.2337 7.57495 9.65361 7.57495 10.1635C7.57495 10.6734 7.99495 11.0933 8.50495 11.0933H12.195V15.8423C12.195 16.3522 12.615 16.7721 13.125 16.7721C13.635 16.7721 14.055 16.3522 14.055 15.8423V11.0933H17.745C18.255 11.0933 18.6749 10.6734 18.6749 10.1635C18.6749 9.65361 18.255 9.2337 17.745 9.2337ZM17.735 18.4616H8.50495C7.99495 18.4616 7.57495 18.8816 7.57495 19.3916C7.57495 19.9016 7.99495 20.3216 8.50495 20.3216H17.735C18.245 20.3216 18.665 19.9016 18.665 19.3916C18.665 18.8816 18.245 18.4616 17.735 18.4616Z" fill="#CE9A24"/>
</svg>
