<svg width="35" height="35" viewBox="0 0 35 35" fill="none" xmlns="http://www.w3.org/2000/svg">
<path d="M32.9808 17.6615C32.927 15.4673 32.1731 13.3269 30.827 11.5904C29.1712 9.43654 26.7751 8.07692 24.1097 7.76731C22.2385 7.53846 20.3943 7.86154 18.7385 8.64231V6.83846C18.7385 4.45577 20.6366 2.50385 22.9789 2.50385C23.6654 2.50385 24.2174 1.93846 24.2174 1.25192C24.2174 0.565385 23.6654 0 22.9789 0C19.277 0 16.2616 3.06923 16.2616 6.83846V8.64231C14.9558 8.02308 13.5154 7.7 12.0616 7.7C6.60967 7.7 2.1539 12.1423 2.01929 17.6615C2.01929 17.6885 2.01929 17.7154 2.01929 17.7423V17.9442C2.04621 22.8308 3.4866 27.5423 6.15198 31.5808C6.69044 32.4154 7.36352 33.1423 8.18467 33.7481C9.31544 34.5692 10.6481 35 12.0481 35H12.0616C13.9866 35 15.8847 34.4212 17.5001 33.3577C19.1154 34.4212 21.0001 35 22.9251 35C22.9251 35 22.9385 35 22.952 35C24.352 35 25.6847 34.5692 26.8289 33.7346C27.6231 33.1423 28.2962 32.4154 28.8347 31.5942C31.5135 27.5423 32.9539 22.8308 32.9808 17.9577V17.7558C32.9808 17.7558 32.9808 17.7019 32.9808 17.6615ZM26.7751 30.2077C26.3981 30.8 25.9135 31.3115 25.3751 31.7154C24.6616 32.2269 23.827 32.4962 22.952 32.4962H22.9385C21.2558 32.4962 19.6001 31.9038 18.2808 30.8404C18.052 30.6519 17.7827 30.5712 17.5135 30.5712C17.2443 30.5712 16.9616 30.6654 16.7462 30.8404C15.427 31.9038 13.7712 32.4962 12.0751 32.4962H12.0616C11.1866 32.4962 10.352 32.2269 9.66544 31.7288C9.11352 31.3115 8.6289 30.8 8.23852 30.1942C5.81544 26.5327 4.52313 22.2788 4.50967 17.8635C4.53659 13.6231 7.91544 10.1904 12.0616 10.1904C13.7443 10.1904 15.4135 10.7827 16.7327 11.8462C17.1904 12.2096 17.8231 12.2096 18.2808 11.8462C19.8558 10.5808 21.8347 10.0019 23.827 10.2442C25.8328 10.4865 27.6231 11.5096 28.8751 13.125C29.9116 14.4712 30.4904 16.1538 30.5039 17.8635C30.4904 22.2788 29.1981 26.5327 26.7751 30.2077Z" fill="#CE9A24"/>
</svg>
