<svg width="35" height="35" viewBox="0 0 35 35" fill="none" xmlns="http://www.w3.org/2000/svg">
<g clip-path="url(#clip0_26_98)">
<path fill-rule="evenodd" clip-rule="evenodd" d="M21.9088 12.8792C21.7204 12.8792 21.5184 12.8657 21.33 12.8253C18.9608 12.408 17.5473 9.56766 18.1127 6.36381C18.4358 4.53304 19.3781 2.93112 20.63 2.05612C21.4781 1.46381 22.4204 1.23497 23.3492 1.3965C25.7184 1.81381 27.1319 4.65419 26.5665 7.85804C26.2434 9.67535 25.3011 11.2907 24.0492 12.1657C23.3627 12.6369 22.6358 12.8792 21.9088 12.8792ZM22.0704 4.08881C21.3569 4.58689 20.7781 5.62343 20.5761 6.79458V6.78112C20.2396 8.65227 20.9261 10.2138 21.7608 10.3619C22.0165 10.4157 22.3127 10.335 22.6088 10.1196C23.3223 9.6215 23.9011 8.58496 24.1031 7.41381C24.4396 5.54266 23.7531 3.98112 22.9184 3.83304C22.6627 3.79266 22.38 3.87343 22.0704 4.08881ZM33.9838 11.735C33.3108 11.0754 32.4088 10.7119 31.3723 10.7119C29.8511 10.7119 28.155 11.4927 26.8358 12.7984C24.5338 15.1003 24.0627 18.2234 25.7588 19.9196C26.4184 20.5792 27.3338 20.9426 28.3704 20.9426C29.8915 20.9426 31.5877 20.1619 32.9069 18.8561C35.2088 16.5542 35.68 13.4311 33.9838 11.735ZM31.13 17.1061C30.2954 17.9407 29.2319 18.4657 28.3704 18.4657C27.9934 18.4657 27.7108 18.3715 27.5223 18.183C26.9165 17.5772 27.2531 15.908 28.5992 14.5619C29.4338 13.7272 30.4973 13.2023 31.3588 13.2023C31.7358 13.2023 32.0184 13.2965 32.2069 13.4849C32.8127 14.0907 32.4761 15.7599 31.13 17.1061ZM17.4668 16.4465C11.6245 16.4465 6.37451 23.9311 6.37451 27.4715C6.37451 31.0119 9.14759 33.6503 12.5668 33.6503C13.5495 33.6503 14.411 33.058 15.3129 32.4253C16.0264 31.9272 16.8476 31.3619 17.4264 31.3619C18.0322 31.3619 18.8803 31.9272 19.6206 32.4388C20.5495 33.0715 21.4245 33.6503 22.4072 33.6503C25.8264 33.6503 28.5995 30.8772 28.5995 27.4715C28.5995 24.0657 23.336 16.4465 17.4668 16.4465ZM22.4205 31.1599C22.1981 31.135 21.6028 30.7486 21.1528 30.4562L21.0341 30.3792L20.9474 30.3214C19.9198 29.6356 18.775 28.8715 17.4264 28.8715C16.0599 28.8715 14.9289 29.656 13.93 30.3487L13.886 30.3792L13.8468 30.4061L13.8467 30.4062C13.4161 30.7024 12.7888 31.1338 12.5668 31.1599C10.5341 31.1599 8.87836 29.5042 8.87836 27.4715C8.87836 25.4388 12.9437 18.9369 17.4668 18.9369C21.9899 18.9369 26.0956 25.5061 26.0956 27.4715C26.0956 29.4327 24.4471 31.1525 22.4205 31.1599ZM6.63017 20.983C7.68017 20.983 8.5821 20.633 9.24171 19.9599C10.9379 18.2638 10.4667 15.1272 8.16479 12.8388C6.85902 11.5331 5.16287 10.7523 3.62825 10.7523C2.57825 10.7523 1.67633 11.1023 1.01671 11.7754C-0.679442 13.4715 -0.208288 16.608 2.09363 18.8965C3.3994 20.2022 5.09556 20.983 6.61671 20.983H6.63017ZM2.79363 13.5253C2.9821 13.3369 3.26479 13.2427 3.64171 13.2427C4.50325 13.2427 5.56671 13.7676 6.40133 14.6022C7.74748 15.9484 8.07056 17.6176 7.47825 18.2234C7.28979 18.4119 7.0071 18.5061 6.63017 18.5061C5.76863 18.5061 4.70517 17.9811 3.87056 17.1465C2.5244 15.8003 2.18787 14.1311 2.79363 13.5253ZM13.1054 12.9061C12.365 12.9061 11.6381 12.6638 10.965 12.1927C9.71311 11.3177 8.7708 9.71575 8.44772 7.88498C7.88234 4.68113 9.2958 1.84075 11.665 1.42344C12.5939 1.2619 13.5362 1.49075 14.3842 2.08305C15.6362 2.95805 16.5785 4.55998 16.9015 6.39075C17.4669 9.59459 16.0535 12.435 13.6842 12.8523C13.4958 12.8927 13.3073 12.9061 13.1054 12.9061ZM12.9439 4.11575C12.6477 3.91382 12.3516 3.81959 12.0958 3.87344C11.2612 4.02152 10.5746 5.58305 10.9112 7.45421C11.1266 8.62536 11.692 9.6619 12.4054 10.16C12.7016 10.3619 12.9977 10.4427 13.2535 10.4023C14.0881 10.2542 14.7746 8.69267 14.4381 6.82152C14.2227 5.65036 13.6573 4.61382 12.9439 4.11575Z" fill="#CE9A24"/>
</g>
<defs>
<clipPath id="clip0_26_98">
<rect width="35" height="35" fill="white"/>
</clipPath>
</defs>
</svg>
