<svg width="35" height="35" viewBox="0 0 35 35" fill="none" xmlns="http://www.w3.org/2000/svg">
<g clip-path="url(#clip0_26_109)">
<path fill-rule="evenodd" clip-rule="evenodd" d="M32.9404 9.49842V23.8846C34.0846 23.9815 35 24.9507 35 26.1415V26.5569C35 29.4784 32.6442 31.8461 29.75 31.8461H5.25C2.35577 31.8461 0 29.4784 0 26.5569V26.1415C0 24.9507 0.901923 23.9815 2.05962 23.8846V9.49842C2.05962 6.54919 4.56346 4.15381 7.64615 4.15381H27.3538C30.4365 4.15381 32.9404 6.54919 32.9404 9.49842ZM27.3538 6.67381H7.64615C5.95 6.67381 4.56346 7.94765 4.56346 9.49842V23.8569H30.4365V9.49842C30.4365 7.93381 29.05 6.67381 27.3538 6.67381ZM29.75 29.3261C31.2577 29.3261 32.4962 28.08 32.4962 26.5569V26.3769H2.50385V26.5569C2.50385 28.08 3.72885 29.3261 5.25 29.3261H29.75ZM18.6038 13.9551H21.3769C22.0635 13.9551 22.6154 14.5226 22.6154 15.2285C22.6154 15.9343 22.0635 16.5018 21.3769 16.5018H18.6038V19.3529C18.6038 20.0587 18.0519 20.6262 17.3654 20.6262C16.6788 20.6262 16.1269 20.0587 16.1269 19.3529V16.5018H13.3538C12.6673 16.5018 12.1154 15.9343 12.1154 15.2285C12.1154 14.5226 12.6673 13.9551 13.3538 13.9551H16.1269V11.104C16.1269 10.3981 16.6788 9.8307 17.3654 9.8307C18.0519 9.8307 18.6038 10.3981 18.6038 11.104V13.9551Z" fill="#CE9A24"/>
</g>
<defs>
<clipPath id="clip0_26_109">
<rect width="35" height="35" fill="white"/>
</clipPath>
</defs>
</svg>
